<?xml version="1.0" encoding="UTF-8" standalone="no"?>
<svg
   xmlns:dc="http://purl.org/dc/elements/1.1/"
   xmlns:cc="http://creativecommons.org/ns#"
   xmlns:rdf="http://www.w3.org/1999/02/22-rdf-syntax-ns#"
   xmlns:svg="http://www.w3.org/2000/svg"
   xmlns="http://www.w3.org/2000/svg"
   viewBox="0 0 1440 1440"
   height="1440"
   width="1440"
   xml:space="preserve"
   id="svg2"
   version="1.1"><metadata
     id="metadata8"><rdf:RDF><cc:Work
         rdf:about=""><dc:format>image/svg+xml</dc:format><dc:type
           rdf:resource="http://purl.org/dc/dcmitype/StillImage" /></cc:Work></rdf:RDF></metadata><defs
     id="defs6"><clipPath
       id="clipPath18"
       clipPathUnits="userSpaceOnUse"><path
         id="path16"
         d="M 0,1080 H 1080 V 0 H 0 Z" /></clipPath></defs><g
     transform="matrix(1.3333333,0,0,-1.3333333,0,1440)"
     id="g10"><g
       id="g12"><g
         clip-path="url(#clipPath18)"
         id="g14"><g
           transform="translate(618.8098,588.8102)"
           id="g20"><path
             id="path22"
             style="fill:#9b0707;fill-opacity:1;fill-rule:nonzero;stroke:none"
             d="m 0,0 c 0,-8.123 -21.855,-12.69 -24.235,-20.02 -2.467,-7.597 12.442,-24.123 7.84,-30.446 -4.647,-6.386 -25.002,2.713 -31.388,-1.935 -6.323,-4.601 -3.931,-26.793 -11.528,-29.26 -7.33,-2.379 -18.408,16.903 -26.531,16.903 -8.123,0 -19.202,-19.282 -26.532,-16.902 -7.596,2.466 -5.204,24.658 -11.527,29.26 -6.387,4.648 -26.741,-4.452 -31.389,1.935 -4.602,6.323 10.307,22.849 7.841,30.445 -2.38,7.33 -24.235,11.897 -24.235,20.02 0,8.123 21.855,12.69 24.235,20.02 2.467,7.597 -12.442,24.123 -7.84,30.446 4.647,6.386 25.002,-2.713 31.388,1.935 6.323,4.601 3.931,26.793 11.528,29.26 7.33,2.379 18.408,-16.903 26.531,-16.903 8.123,0 19.202,19.282 26.532,16.902 7.596,-2.466 5.204,-24.658 11.527,-29.26 6.387,-4.648 26.741,4.452 31.389,-1.935 C -11.792,44.142 -26.701,27.616 -24.235,20.02 -21.855,12.69 0,8.123 0,0" /></g><g
           transform="translate(417.295,409.3258)"
           id="g24"><path
             id="path26"
             style="fill:#9b0707;fill-opacity:1;fill-rule:nonzero;stroke:none"
             d="m 0,0 c -4.301,0 -8.362,2.36 -8.362,7.201 0,4.781 3.72,7.002 8.002,7.002 1.299,0 2.64,-0.14 3.86,-0.42 L 3.24,10.862 c -0.92,0.3 -1.88,0.4 -2.9,0.4 -2.941,0 -4.921,-1.32 -4.921,-4.041 0,-2.9 2.42,-4.301 5.161,-4.301 0.88,0 1.8,0.121 2.641,0.38 l 0.2,-2.88 C 2.3,0.1 1.14,0 0,0" /></g><g
           transform="translate(437.2745,419.8277)"
           id="g28"><path
             id="path30"
             style="fill:#9b0707;fill-opacity:1;fill-rule:nonzero;stroke:none"
             d="M 0,0 -1.801,-5.061 H 1.82 Z m 3.62,-10.142 -0.899,2.5 h -5.422 l -0.9,-2.5 H -7.502 L -1.841,3.461 H 1.92 l 5.682,-13.603 z" /></g><g
           transform="translate(461.3146,409.3258)"
           id="g32"><path
             id="path34"
             style="fill:#9b0707;fill-opacity:1;fill-rule:nonzero;stroke:none"
             d="m 0,0 c -4.301,0 -8.362,2.36 -8.362,7.201 0,4.781 3.72,7.002 8.002,7.002 1.299,0 2.64,-0.14 3.86,-0.42 L 3.24,10.862 c -0.92,0.3 -1.88,0.4 -2.9,0.4 -2.941,0 -4.921,-1.32 -4.921,-4.041 0,-2.9 2.42,-4.301 5.161,-4.301 0.88,0 1.8,0.121 2.641,0.38 l 0.2,-2.88 C 2.3,0.1 1.14,0 0,0" /></g><g
           transform="translate(484.254,409.6856)"
           id="g36"><path
             id="path38"
             style="fill:#9b0707;fill-opacity:1;fill-rule:nonzero;stroke:none"
             d="M 0,0 V 5.901 H -5.721 V 0 h -3.621 v 13.483 h 3.621 V 8.702 H 0 v 4.781 H 3.621 V 0 Z" /></g><g
           transform="translate(504.9142,419.8277)"
           id="g40"><path
             id="path42"
             style="fill:#9b0707;fill-opacity:1;fill-rule:nonzero;stroke:none"
             d="M 0,0 -1.801,-5.061 H 1.82 Z m 3.62,-10.142 -0.899,2.5 h -5.422 l -0.9,-2.5 H -7.502 L -1.841,3.461 H 1.92 l 5.682,-13.603 z" /></g><g
           transform="translate(529.174,420.4679)"
           id="g44"><path
             id="path46"
             style="fill:#9b0707;fill-opacity:1;fill-rule:nonzero;stroke:none"
             d="m 0,0 h -3.541 v -3.101 h 3.48 C 1.2,-3.101 1.86,-2.5 1.86,-1.48 1.86,-0.66 1.24,0 0,0 m 1.38,-10.782 -3.021,5.061 h -1.9 v -5.061 H -7.162 V 2.701 H 0.479 C 3.5,2.701 5.561,1.2 5.561,-1.38 5.561,-3.421 4.28,-4.641 2.681,-5.121 2.44,-5.201 2.2,-5.241 1.96,-5.281 l 3.721,-5.501 z" /></g><g
           transform="translate(551.9337,420.4679)"
           id="g48"><path
             id="path50"
             style="fill:#9b0707;fill-opacity:1;fill-rule:nonzero;stroke:none"
             d="m 0,0 h -3.541 v -3.101 h 3.48 C 1.2,-3.101 1.86,-2.5 1.86,-1.48 1.86,-0.66 1.24,0 0,0 m 1.38,-10.782 -3.021,5.061 h -1.9 v -5.061 H -7.162 V 2.701 H 0.479 C 3.5,2.701 5.561,1.2 5.561,-1.38 5.561,-3.421 4.28,-4.641 2.681,-5.121 2.44,-5.201 2.2,-5.241 1.96,-5.281 l 3.721,-5.501 z" /></g><g
           transform="translate(567.5314,409.6856)"
           id="g52"><path
             id="path54"
             style="fill:#9b0707;fill-opacity:1;fill-rule:nonzero;stroke:none"
             d="M 0,0 V 13.483 H 10.822 V 10.782 H 3.621 v -2.28 h 7.201 V 5.961 H 3.621 v -3.26 h 7.201 V 0 Z" /></g><g
           transform="translate(595.9728,420.4679)"
           id="g56"><path
             id="path58"
             style="fill:#9b0707;fill-opacity:1;fill-rule:nonzero;stroke:none"
             d="m 0,0 h -3.541 v -3.101 h 3.481 c 1.26,0 1.92,0.601 1.92,1.621 C 1.86,-0.66 1.24,0 0,0 m 1.381,-10.782 -3.022,5.061 h -1.9 v -5.061 h -3.62 V 2.701 H 0.48 c 3.021,0 5.082,-1.501 5.082,-4.081 0,-2.041 -1.281,-3.261 -2.881,-3.741 -0.241,-0.08 -0.481,-0.12 -0.72,-0.16 l 3.721,-5.501 z" /></g><path
           id="path60"
           style="fill:#9b0707;fill-opacity:1;fill-rule:nonzero;stroke:none"
           d="m 611.571,423.169 h 3.62 v -13.483 h -3.62 z" /><g
           transform="translate(632.2325,419.8277)"
           id="g62"><path
             id="path64"
             style="fill:#9b0707;fill-opacity:1;fill-rule:nonzero;stroke:none"
             d="M 0,0 -1.801,-5.061 H 1.82 Z m 3.62,-10.142 -0.899,2.5 h -5.422 l -0.9,-2.5 H -7.502 L -1.841,3.461 H 1.92 l 5.682,-13.603 z" /></g><g
           transform="translate(472.2158,507.326)"
           id="g66"><path
             id="path68"
             style="fill:#aab512;fill-opacity:1;fill-rule:nonzero;stroke:none"
             d="m 0,0 -15.657,-1.305 -11.874,-33.924 h -1.305 l -12.39,27.97 -14.301,-1.182 v 0 c -6.438,-19.723 -8.909,-40.526 -7.27,-61.209 l 0.167,-2.113 h 19.572 l -0.922,29.994 10.055,-20.86 h 13.048 l 8.397,22.181 -0.568,-31.315 H 6.523 c 2.115,22.635 0.284,45.466 -5.413,67.474 z" /></g><g
           transform="translate(519.7764,452.1414)"
           id="g70"><path
             id="path72"
             style="fill:#aab512;fill-opacity:1;fill-rule:nonzero;stroke:none"
             d="m 0,0 c -2.073,-2.369 -5.774,-4.513 -9.032,-4.513 -4.442,0 -9.624,2.961 -9.624,10.366 0,6.662 5.182,8.883 9.624,8.883 4.59,0 7.404,-1.925 9.032,-3.257 z M -0.194,29.089 -0.586,19.042 c -1.696,4.437 -6.133,10.047 -14.613,10.047 -12.396,0 -21.53,-7.828 -21.53,-20.876 0,-15.657 10.439,-24.791 23.487,-24.791 4.566,0 8.872,1.565 11.873,4.436 l -0.13,-4.436 h 19.571 l -1.304,46.972 z" /></g><g
           transform="translate(562.9023,471.4452)"
           id="g74"><path
             id="path76"
             style="fill:#aab512;fill-opacity:1;fill-rule:nonzero;stroke:none"
             d="M 0,0 -0.262,11.09 -17.224,9.785 -18.528,-35.882 H 1.044 L 0.261,-7.698 c 1.304,0.782 3.784,1.826 8.611,1.826 6.524,0 9.786,-1.305 9.786,-1.305 L 19.311,8.48 c 0,0 -1.305,1.305 -5.22,1.305 C 5.74,9.785 1.696,4.436 0,0" /></g><g
           transform="translate(589.6494,481.2303)"
           id="g78"><path
             id="path80"
             style="fill:#aab512;fill-opacity:1;fill-rule:nonzero;stroke:none"
             d="M 0,0 -1.305,-45.667 H 18.268 L 16.962,1.305 Z" /></g><g
           transform="translate(597.4785,487.7547)"
           id="g82"><path
             id="path84"
             style="fill:#aab512;fill-opacity:1;fill-rule:nonzero;stroke:none"
             d="m 0,0 c 5.479,0 9.133,3.653 9.133,9.133 0,5.48 -3.654,9.134 -9.133,9.134 -5.48,0 -9.134,-3.654 -9.134,-9.134 C -9.134,3.653 -5.48,0 0,0" /></g><g
           transform="translate(644.9727,481.2303)"
           id="g86"><path
             id="path88"
             style="fill:#aab512;fill-opacity:1;fill-rule:nonzero;stroke:none"
             d="M 0,0 C -6.524,0 -10.308,-5.219 -12.004,-9.655 L -12.266,1.305 -29.228,0 -30.532,-45.667 h 19.572 l -0.783,29.749 c 0.652,0.783 1.435,1.565 2.609,1.565 2.61,0 4.567,-1.957 4.567,-7.828 0,-6.524 -0.653,-23.486 -0.653,-23.486 h 20.877 l -0.652,24.791 C 14.613,-7.828 11.743,0 0,0" /></g><g
           transform="translate(676.2871,487.7547)"
           id="g90"><path
             id="path92"
             style="fill:#aab512;fill-opacity:1;fill-rule:nonzero;stroke:none"
             d="m 0,0 c 5.479,0 9.133,3.653 9.133,9.133 0,5.48 -3.654,9.134 -9.133,9.134 -5.48,0 -9.134,-3.654 -9.134,-9.134 C -9.134,3.653 -5.48,0 0,0" /></g><g
           transform="translate(668.458,481.2303)"
           id="g94"><path
             id="path96"
             style="fill:#aab512;fill-opacity:1;fill-rule:nonzero;stroke:none"
             d="M 0,0 -1.305,-45.667 H 18.268 L 16.962,1.305 Z" /></g><g
           transform="translate(694.5537,506.0213)"
           id="g98"><path
             id="path100"
             style="fill:#aab512;fill-opacity:1;fill-rule:nonzero;stroke:none"
             d="M 0,0 -1.305,-70.458 H 18.268 L 16.962,1.305 Z" /></g><g
           transform="translate(720.6499,500.993)"
           id="g102"><path
             id="path104"
             style="fill:#aab512;fill-opacity:1;fill-rule:nonzero;stroke:none"
             d="M 0,0 -1.305,-65.43 H 18.267 L 16.962,1.305 Z" /></g><g
           transform="translate(769.7786,449.9159)"
           id="g106"><path
             id="path108"
             style="fill:#aab512;fill-opacity:1;fill-rule:nonzero;stroke:none"
             d="m 0,0 c -5.219,0 -10.964,2.609 -10.964,9.786 0,7.176 5.745,9.785 10.964,9.785 5.219,0 11.086,-2.609 11.086,-9.785 C 11.086,2.609 5.219,0 0,0 m 0.061,33.924 c -15.657,0 -24.791,-7.959 -24.791,-24.138 0,-16.18 9.134,-24.139 24.791,-24.139 15.658,0 24.791,7.959 24.791,24.139 0,16.179 -9.133,24.138 -24.791,24.138" /></g><g
           transform="translate(815.6406,465.5731)"
           id="g110"><path
             id="path112"
             style="fill:#aab512;fill-opacity:1;fill-rule:nonzero;stroke:none"
             d="m 0,0 c 0,1.305 1.305,2.609 7.828,2.609 5.22,0 9.134,-1.304 9.134,-1.304 v 15.657 c 0,0 -3.914,1.305 -11.743,1.305 -13.048,0 -20.876,-3.914 -20.876,-14.353 0,-13.048 19.571,-12.395 19.571,-15.657 0,-1.957 -2.609,-2.61 -7.828,-2.61 -9.134,0 -11.743,1.305 -11.743,1.305 V -27.4 c 0,0 2.609,-2.61 15.657,-2.61 14.353,0 20.876,6.524 20.876,14.353 C 20.876,-3.914 0,-5.219 0,0" /></g><g
           transform="translate(261.75,507.326)"
           id="g114"><path
             id="path116"
             style="fill:#aab512;fill-opacity:1;fill-rule:nonzero;stroke:none"
             d="m 0,0 -16.962,-1.305 -1.305,-70.458 h 40.449 l 1.304,19.572 -22.18,-1.305 z" /></g><g
           transform="translate(360.917,465.5731)"
           id="g118"><path
             id="path120"
             style="fill:#aab512;fill-opacity:1;fill-rule:nonzero;stroke:none"
             d="m 0,0 c 0,1.305 1.305,2.609 7.828,2.609 5.22,0 9.134,-1.304 9.134,-1.304 v 15.657 c 0,0 -3.914,1.305 -11.743,1.305 -13.048,0 -20.876,-3.914 -20.876,-14.353 0,-13.048 19.571,-12.395 19.571,-15.657 0,-1.957 -2.609,-2.61 -7.828,-2.61 -9.134,0 -11.743,1.305 -11.743,1.305 V -27.4 c 0,0 2.609,-2.61 15.657,-2.61 14.353,0 20.876,6.524 20.876,14.353 C 20.876,-3.914 0,-5.219 0,0" /></g><g
           transform="translate(315.0559,450.2027)"
           id="g122"><path
             id="path124"
             style="fill:#aab512;fill-opacity:1;fill-rule:nonzero;stroke:none"
             d="m 0,0 c -5.219,0 -10.964,2.609 -10.964,9.786 0,7.176 5.745,9.785 10.964,9.785 5.219,0 11.086,-2.609 11.086,-9.785 C 11.086,2.609 5.219,0 0,0 m 0.061,33.924 c -15.657,0 -24.791,-7.959 -24.791,-24.138 0,-16.18 9.134,-24.139 24.791,-24.139 15.658,0 24.791,7.959 24.791,24.139 0,16.179 -9.133,24.138 -24.791,24.138" /></g><g
           transform="translate(569.3291,626.6404)"
           id="g126"><path
             id="path128"
             style="fill:#f1ece6;fill-opacity:1;fill-rule:nonzero;stroke:none"
             d="M 0,0 -1.425,5.503 -20.812,3.887 -34.977,-36.581 h -0.919 l -14.801,33.413 -17.716,-1.464 -0.096,-0.297 c -7.745,-23.724 -10.672,-48.368 -8.701,-73.248 l 0.234,-2.955 h 24.282 l -1.048,34.078 11.171,-23.175 h 16.194 l 9.181,24.251 -0.638,-35.154 H 6.435 l 0.04,0.426 C 9.012,-53.554 6.834,-26.4 0,0" /></g></g></g></g></svg>