<?xml version="1.0" standalone="no"?>
<!DOCTYPE svg PUBLIC "-//W3C//DTD SVG 20010904//EN"
 "http://www.w3.org/TR/2001/REC-SVG-20010904/DTD/svg10.dtd">
<svg version="1.0" xmlns="http://www.w3.org/2000/svg"
 width="313.000000pt" height="302.000000pt" viewBox="0 0 313.000000 302.000000"
 preserveAspectRatio="xMidYMid meet">

<g transform="translate(0.000000,302.000000) scale(0.100000,-0.100000)"
fill="#000000" stroke="none">
<path d="M1330 2868 c-83 -77 -188 -170 -550 -493 -129 -115 -240 -214 -246
-220 -6 -5 -54 -48 -107 -95 -53 -46 -97 -91 -97 -100 0 -9 23 -36 52 -61 29
-24 124 -107 213 -184 316 -274 717 -621 773 -667 21 -17 41 -26 55 -24 12 3
102 5 200 5 l178 1 -73 62 c-40 34 -75 65 -78 68 -3 3 -68 59 -145 125 -77 65
-142 122 -145 125 -3 3 -36 32 -75 65 -38 33 -83 72 -100 86 -16 15 -122 106
-235 204 -113 98 -206 185 -208 195 -3 17 49 67 343 325 50 44 108 96 130 116
78 70 351 315 415 371 36 31 85 75 110 97 l45 41 -205 0 -205 -1 -45 -41z"/>
<path d="M1710 2764 c-58 -52 -111 -101 -119 -109 -16 -16 -23 -3 160 -263
l87 -123 58 98 c32 54 69 118 83 143 13 25 31 56 41 70 9 14 22 34 28 46 13
25 8 32 -84 109 -32 28 -77 67 -100 88 -23 20 -43 37 -45 37 -2 -1 -51 -44
-109 -96z"/>
<path d="M2097 2588 c-38 -61 -137 -229 -137 -232 0 -12 -108 -180 -117 -183
-6 -2 -31 24 -54 59 -24 35 -92 132 -152 216 -112 157 -114 159 -147 121 -7
-8 -113 -102 -205 -184 -44 -38 -99 -88 -123 -110 l-43 -40 7 -276 7 -276 170
-147 c94 -80 173 -146 176 -146 3 0 5 119 3 265 -3 214 -1 265 10 264 7 0 56
-52 108 -115 52 -64 102 -123 110 -132 12 -14 106 -125 130 -155 4 -4 83 84
176 197 93 113 175 205 182 205 9 1 12 -56 12 -250 0 -143 4 -249 9 -247 5 2
51 42 102 89 52 47 112 101 133 120 22 19 57 50 78 70 l38 35 0 236 0 236 -82
74 c-46 40 -112 98 -148 128 -36 30 -102 88 -147 128 l-82 73 -14 -23z"/>
<path d="M960 2094 c-52 -47 -106 -96 -120 -110 -28 -27 -36 -16 80 -114 36
-30 81 -69 100 -88 l35 -33 3 111 c1 61 1 158 0 215 l-3 104 -95 -85z"/>
<path d="M2630 1975 c0 -97 4 -175 8 -173 20 7 190 164 191 175 1 6 -11 21
-26 32 -14 12 -53 45 -86 74 -94 83 -87 92 -87 -108z"/>
<path d="M2001 1600 c-78 -93 -146 -170 -153 -170 -12 0 -5 -7 -171 188 -67
78 -125 142 -129 142 -10 0 -10 -75 -1 -282 l6 -157 139 -120 139 -121 25 19
c13 10 68 59 121 107 54 49 115 105 136 124 l39 35 -2 200 c0 109 -2 200 -4
202 -1 2 -67 -73 -145 -167z"/>
<path d="M2645 720 c-36 -55 -65 -105 -65 -110 0 -20 21 -9 32 15 13 28 39 38
89 33 29 -2 34 -7 37 -30 2 -20 9 -28 24 -28 17 0 19 4 13 28 -4 15 -13 60
-21 100 -15 79 -20 92 -35 92 -5 0 -38 -45 -74 -100z m77 0 c3 -33 1 -35 -29
-38 -39 -4 -40 4 -12 53 24 41 37 36 41 -15z"/>
<path d="M963 794 c-61 -30 -98 -124 -68 -170 23 -35 58 -47 106 -34 52 14 50
29 -4 23 -61 -7 -81 14 -73 76 9 64 42 95 103 97 59 2 63 3 38 14 -31 13 -67
11 -102 -6z"/>
<path d="M1142 798 c-7 -7 -12 -24 -12 -38 0 -15 -6 -49 -14 -76 -25 -90 -26
-95 -8 -92 10 2 20 20 27 48 l11 45 58 3 58 3 -6 -36 c-4 -20 -10 -43 -13 -51
-3 -8 1 -14 11 -14 16 0 26 28 47 140 14 72 14 75 -3 75 -6 0 -13 -13 -15 -29
-8 -56 -19 -66 -75 -66 l-51 0 6 45 c7 46 -2 62 -21 43z"/>
<path d="M1429 758 c-19 -29 -41 -64 -49 -78 -9 -14 -24 -38 -34 -53 -27 -40
-9 -48 22 -9 23 27 34 32 70 32 36 0 44 -4 52 -24 10 -27 26 -40 34 -28 3 4
-3 53 -12 107 -21 122 -34 130 -83 53z m46 -75 c-2 -7 -16 -13 -30 -13 -32 0
-33 21 -3 63 l22 31 8 -34 c4 -19 5 -41 3 -47z"/>
<path d="M1631 788 c-10 -25 -41 -160 -41 -177 0 -27 27 -7 36 26 13 54 40 56
62 4 11 -26 24 -41 35 -41 21 0 21 1 1 43 -16 33 -16 35 10 60 32 32 35 81 7
97 -11 5 -38 10 -61 10 -33 0 -42 -4 -49 -22z m87 -10 c19 -19 14 -45 -10 -62
-35 -25 -58 -20 -58 10 0 53 38 82 68 52z"/>
<path d="M1840 754 c-7 -33 -18 -78 -25 -101 -9 -28 -10 -45 -4 -49 14 -8 21
1 34 39 15 48 43 47 62 -2 11 -27 22 -41 35 -41 22 0 22 0 3 36 -20 38 -19 51
4 63 10 6 24 24 31 41 18 43 -2 62 -74 68 l-54 4 -12 -58z m98 24 c19 -19 14
-45 -10 -62 -48 -34 -69 -13 -52 52 7 24 42 30 62 10z"/>
<path d="M2048 710 c-14 -55 -22 -102 -20 -105 10 -10 132 -5 132 5 0 6 -23
10 -51 10 l-51 0 7 33 c10 46 12 47 61 47 24 0 44 5 44 10 0 6 -18 10 -41 10
-39 0 -40 1 -37 33 3 31 4 32 56 35 74 4 65 22 -12 22 l-64 0 -24 -100z"/>
<path d="M2265 788 c-40 -174 -42 -188 -25 -188 11 0 14 7 24 53 10 44 47 37
68 -13 10 -24 23 -40 33 -40 12 0 15 5 10 18 -30 72 -30 70 -2 92 20 16 27 30
27 55 0 39 -12 45 -81 45 -42 0 -49 -3 -54 -22z m99 -20 c8 -13 6 -22 -8 -37
-21 -23 -78 -30 -72 -8 3 6 7 25 11 40 5 23 10 28 32 25 14 -2 31 -11 37 -20z"/>
<path d="M2496 799 c10 -16 -17 -158 -33 -174 -20 -21 -16 -25 22 -25 33 0 48
14 24 22 -7 2 -6 22 4 63 8 33 18 72 21 87 3 14 14 29 24 31 9 3 -2 5 -26 6
-29 1 -41 -3 -36 -10z"/>
<path d="M498 785 c-38 -21 -68 -75 -68 -123 0 -55 37 -86 94 -79 21 3 44 11
50 17 8 10 4 11 -18 7 -89 -16 -123 67 -59 143 21 26 32 30 74 30 27 0 49 5
49 10 0 15 -91 11 -122 -5z"/>
<path d="M718 748 c-18 -29 -47 -75 -65 -102 -37 -55 -38 -56 -20 -56 8 0 20
11 27 25 12 22 20 25 67 25 47 0 53 -2 53 -20 0 -18 25 -39 35 -29 2 3 -3 50
-12 107 -19 124 -34 133 -85 50z m48 -34 c8 -43 -5 -59 -40 -50 l-26 6 20 40
c25 49 37 50 46 4z"/>
<path d="M1415 539 c-412 -3 -855 -7 -982 -8 -159 -1 -233 -4 -233 -12 0 -8
255 -9 888 -5 1370 10 1912 17 1912 28 0 9 -97 9 -1585 -3z"/>
<path d="M2325 448 c-3 -8 -4 -66 -3 -129 l3 -114 28 -3 27 -3 0 125 c0 70 -4
126 -9 126 -5 0 -16 3 -25 6 -9 3 -18 0 -21 -8z"/>
<path d="M2450 328 l0 -127 28 2 c26 2 27 4 25 62 0 33 -2 89 -2 125 -1 62 -2
65 -26 65 l-25 0 0 -127z"/>
<path d="M1087 443 l-38 -4 3 -122 3 -122 25 0 c24 0 25 2 28 83 2 45 6 82 10
82 7 0 27 -55 50 -140 5 -18 14 -25 31 -25 21 0 25 8 42 73 10 40 21 77 24 83
15 24 25 -8 25 -80 0 -75 1 -78 23 -77 21 1 22 4 25 129 l3 127 -46 0 c-28 0
-47 -5 -50 -12 -2 -7 -11 -39 -20 -70 -18 -67 -39 -76 -50 -20 -9 48 -32 102
-42 100 -4 -1 -25 -3 -46 -5z"/>
<path d="M1824 439 c-3 -6 -1 -15 6 -19 17 -11 50 0 50 16 0 17 -46 19 -56 3z"/>
<path d="M2200 435 c0 -9 9 -15 25 -15 16 0 25 6 25 15 0 9 -9 15 -25 15 -16
0 -25 -6 -25 -15z"/>
<path d="M209 433 c0 -5 0 -60 0 -123 l0 -115 92 -3 c64 -2 95 1 100 9 16 26
-3 38 -64 41 l-62 3 -3 98 -3 97 -29 0 c-17 0 -30 -3 -31 -7z"/>
<path d="M2614 374 c-51 -25 -69 -88 -39 -131 37 -52 146 -51 175 2 46 86 -46
174 -136 129z m67 -34 c13 -7 19 -21 19 -43 0 -52 -33 -73 -64 -41 -21 20 -20
53 1 76 19 21 19 21 44 8z"/>
<path d="M2853 379 c-65 -19 -46 -83 27 -95 49 -8 64 -18 57 -38 -7 -18 -52
-22 -62 -6 -8 12 -65 13 -65 1 0 -20 32 -33 83 -33 69 -1 97 14 97 52 0 34 -6
39 -69 55 -64 16 -63 41 2 37 52 -3 64 12 21 28 -30 12 -48 11 -91 -1z"/>
<path d="M1432 364 c-33 -23 -28 -37 11 -30 66 14 82 12 82 -8 0 -15 -12 -22
-54 -32 -52 -11 -85 -36 -78 -58 2 -5 15 -19 30 -30 23 -17 31 -18 67 -7 24 7
47 8 57 3 41 -19 46 -11 44 68 -1 62 -5 78 -23 93 -26 22 -105 23 -136 1z m98
-104 c0 -23 -32 -43 -54 -34 -23 9 -19 33 7 44 35 14 47 12 47 -10z"/>
<path d="M1658 293 c-3 -91 1 -104 33 -96 13 4 19 14 19 33 0 62 12 93 42 104
16 6 28 18 28 28 0 21 -12 23 -41 6 -17 -10 -23 -10 -26 0 -3 6 -15 12 -28 12
-23 0 -24 -3 -27 -87z"/>
<path d="M1828 290 l-3 -90 28 0 27 0 0 90 c0 89 0 90 -24 90 -24 0 -25 -2
-28 -90z"/>
<path d="M1940 290 l0 -90 30 0 c29 0 30 1 30 51 0 59 13 89 40 89 27 0 40
-30 40 -89 0 -48 2 -51 25 -51 25 0 25 1 25 78 0 47 -5 83 -12 90 -16 16 -63
15 -89 0 -17 -10 -23 -10 -26 0 -3 6 -18 12 -34 12 l-29 0 0 -90z"/>
<path d="M2200 290 c0 -89 0 -90 25 -90 25 0 25 1 25 90 0 89 0 90 -25 90 -25
0 -25 -1 -25 -90z"/>
<path d="M476 349 c-16 -15 -29 -38 -33 -61 -5 -32 -1 -41 25 -68 25 -25 39
-30 76 -30 64 0 99 31 99 89 0 57 -26 82 -90 88 -41 4 -54 1 -77 -18z m88 -25
c24 -9 22 -80 -3 -93 -27 -15 -54 9 -53 47 1 50 16 62 56 46z"/>
<path d="M704 345 c-24 -37 0 -70 57 -78 47 -6 65 -25 45 -46 -12 -11 -19 -11
-47 3 -18 9 -41 14 -51 10 -19 -6 -19 -7 -2 -25 27 -30 117 -27 150 6 39 39
12 75 -68 89 -25 5 -38 12 -38 22 0 13 9 15 49 9 30 -4 51 -3 55 4 10 16 -29
31 -83 31 -43 0 -53 -4 -67 -25z"/>
</g>
</svg>
